<mxfile host="app.diagrams.net" modified="2021-06-11T13:05:44.663Z" agent="5.0 (Windows NT 10.0; Win64; x64) AppleWebKit/537.36 (KHTML, like Gecko) Chrome/91.0.4472.77 Safari/537.36" etag="5_HcfLm_Q1LXug4gF10J" version="14.7.6" type="github">
  <diagram id="zT5wlvQUA5geFUYwrWhU" name="Page-1">
    <mxGraphModel dx="1038" dy="547" grid="1" gridSize="10" guides="1" tooltips="1" connect="1" arrows="1" fold="1" page="1" pageScale="1" pageWidth="850" pageHeight="1100" math="0" shadow="0">
      <root>
        <mxCell id="0" />
        <mxCell id="1" parent="0" />
        <mxCell id="uS2QSH3lE92eHrh-Fmmo-11" value="C" style="shape=cube;whiteSpace=wrap;html=1;boundedLbl=1;backgroundOutline=1;darkOpacity=0.05;darkOpacity2=0.1;size=10;" vertex="1" parent="1">
          <mxGeometry x="670" y="280" width="70" height="60" as="geometry" />
        </mxCell>
        <mxCell id="uS2QSH3lE92eHrh-Fmmo-10" value="B" style="shape=cube;whiteSpace=wrap;html=1;boundedLbl=1;backgroundOutline=1;darkOpacity=0.05;darkOpacity2=0.1;size=10;" vertex="1" parent="1">
          <mxGeometry x="670" y="230" width="70" height="60" as="geometry" />
        </mxCell>
        <mxCell id="uS2QSH3lE92eHrh-Fmmo-1" value="A" style="shape=cube;whiteSpace=wrap;html=1;boundedLbl=1;backgroundOutline=1;darkOpacity=0.05;darkOpacity2=0.1;size=10;" vertex="1" parent="1">
          <mxGeometry x="160" y="280" width="70" height="60" as="geometry" />
        </mxCell>
        <mxCell id="uS2QSH3lE92eHrh-Fmmo-4" value="B" style="shape=cube;whiteSpace=wrap;html=1;boundedLbl=1;backgroundOutline=1;darkOpacity=0.05;darkOpacity2=0.1;size=10;" vertex="1" parent="1">
          <mxGeometry x="160" y="230" width="70" height="60" as="geometry" />
        </mxCell>
        <mxCell id="uS2QSH3lE92eHrh-Fmmo-5" value="C" style="shape=cube;whiteSpace=wrap;html=1;boundedLbl=1;backgroundOutline=1;darkOpacity=0.05;darkOpacity2=0.1;size=10;" vertex="1" parent="1">
          <mxGeometry x="160" y="180" width="70" height="60" as="geometry" />
        </mxCell>
        <mxCell id="uS2QSH3lE92eHrh-Fmmo-6" value="D" style="shape=cube;whiteSpace=wrap;html=1;boundedLbl=1;backgroundOutline=1;darkOpacity=0.05;darkOpacity2=0.1;size=10;" vertex="1" parent="1">
          <mxGeometry x="300" y="280" width="70" height="60" as="geometry" />
        </mxCell>
        <mxCell id="uS2QSH3lE92eHrh-Fmmo-7" value="E" style="shape=cube;whiteSpace=wrap;html=1;boundedLbl=1;backgroundOutline=1;darkOpacity=0.05;darkOpacity2=0.1;size=10;" vertex="1" parent="1">
          <mxGeometry x="300" y="230" width="70" height="60" as="geometry" />
        </mxCell>
        <mxCell id="uS2QSH3lE92eHrh-Fmmo-8" value="" style="shape=flexArrow;endArrow=classic;html=1;" edge="1" parent="1">
          <mxGeometry width="50" height="50" relative="1" as="geometry">
            <mxPoint x="425" y="280" as="sourcePoint" />
            <mxPoint x="515" y="280" as="targetPoint" />
          </mxGeometry>
        </mxCell>
        <mxCell id="uS2QSH3lE92eHrh-Fmmo-9" value="A" style="shape=cube;whiteSpace=wrap;html=1;boundedLbl=1;backgroundOutline=1;darkOpacity=0.05;darkOpacity2=0.1;size=10;" vertex="1" parent="1">
          <mxGeometry x="670" y="180" width="70" height="60" as="geometry" />
        </mxCell>
        <mxCell id="uS2QSH3lE92eHrh-Fmmo-12" value="E" style="shape=cube;whiteSpace=wrap;html=1;boundedLbl=1;backgroundOutline=1;darkOpacity=0.05;darkOpacity2=0.1;size=10;" vertex="1" parent="1">
          <mxGeometry x="550" y="280" width="70" height="60" as="geometry" />
        </mxCell>
        <mxCell id="uS2QSH3lE92eHrh-Fmmo-13" value="D" style="shape=cube;whiteSpace=wrap;html=1;boundedLbl=1;backgroundOutline=1;darkOpacity=0.05;darkOpacity2=0.1;size=10;" vertex="1" parent="1">
          <mxGeometry x="550" y="230" width="70" height="60" as="geometry" />
        </mxCell>
        <mxCell id="uS2QSH3lE92eHrh-Fmmo-14" value="Emplacement 1" style="rounded=1;whiteSpace=wrap;html=1;" vertex="1" parent="1">
          <mxGeometry x="147.5" y="360" width="95" height="20" as="geometry" />
        </mxCell>
        <mxCell id="uS2QSH3lE92eHrh-Fmmo-15" value="Emplacement 2" style="rounded=1;whiteSpace=wrap;html=1;" vertex="1" parent="1">
          <mxGeometry x="287.5" y="360" width="95" height="20" as="geometry" />
        </mxCell>
        <mxCell id="uS2QSH3lE92eHrh-Fmmo-16" value="Emplacement 0" style="rounded=1;whiteSpace=wrap;html=1;" vertex="1" parent="1">
          <mxGeometry x="10" y="360" width="95" height="20" as="geometry" />
        </mxCell>
        <mxCell id="uS2QSH3lE92eHrh-Fmmo-17" value="Emplacement 0" style="rounded=1;whiteSpace=wrap;html=1;" vertex="1" parent="1">
          <mxGeometry x="537.5" y="360" width="95" height="20" as="geometry" />
        </mxCell>
        <mxCell id="uS2QSH3lE92eHrh-Fmmo-18" value="Emplacement 1" style="rounded=1;whiteSpace=wrap;html=1;" vertex="1" parent="1">
          <mxGeometry x="657.5" y="360" width="95" height="20" as="geometry" />
        </mxCell>
        <mxCell id="uS2QSH3lE92eHrh-Fmmo-19" value="Emplacement 2" style="rounded=1;whiteSpace=wrap;html=1;" vertex="1" parent="1">
          <mxGeometry x="790" y="360" width="95" height="20" as="geometry" />
        </mxCell>
      </root>
    </mxGraphModel>
  </diagram>
</mxfile>
